<!-- Generated by IcoMoon.io -->
<svg version="1.1" xmlns="http://www.w3.org/2000/svg" width="32" height="32" viewBox="0 0 32 32">
<title>icons8-search</title>
<path fill="#fff" d="M27.225 27.225c-0.575 0.575-1.525 0.575-2.125 0l-3.175-3.175c-0.575-0.575-0.575-1.525 0-2.125 0.575-0.575 1.525-0.575 2.125 0l3.175 3.175c0.575 0.6 0.575 1.55 0 2.125zM6.884 6.897c-1.583 1.583-2.563 3.771-2.563 6.187 0 4.832 3.918 8.75 8.75 8.75 2.416 0 4.604-0.979 6.187-2.563v0c1.583-1.583 2.563-3.771 2.563-6.187 0-4.832-3.918-8.75-8.75-8.75-2.416 0-4.604 0.979-6.187 2.563v0z"></path>
<path fill="#fff" d="M6.884 6.897c-1.583 1.583-2.563 3.771-2.563 6.187 0 4.832 3.918 8.75 8.75 8.75 2.416 0 4.604-0.979 6.187-2.563v0c1.583-1.583 2.563-3.771 2.563-6.187 0-4.832-3.918-8.75-8.75-8.75-2.416 0-4.604 0.979-6.187 2.563v0z"></path>
<path fill="#71c2ff" d="M13.075 21.075c-0.425 0-0.75-0.325-0.75-0.75s0.325-0.75 0.75-0.75c1.725 0 3.375-0.675 4.6-1.9 1.6-1.6 2.25-3.875 1.725-6.1-0.1-0.4 0.15-0.8 0.55-0.9s0.8 0.15 0.9 0.55c0.65 2.725-0.125 5.55-2.1 7.525-1.525 1.5-3.525 2.325-5.675 2.325zM18.25 8.75c-0.2 0-0.375-0.075-0.525-0.225l-0.050-0.025c-0.3-0.3-0.3-0.775 0-1.050 0.3-0.3 0.775-0.3 1.050 0l0.050 0.050c0.3 0.3 0.3 0.775 0 1.050-0.15 0.125-0.325 0.2-0.525 0.2z"></path>
<path fill="#444b54" d="M13.075 22.575c-2.425 0-4.875-0.925-6.725-2.775-3.7-3.7-3.7-9.725 0-13.425s9.725-3.7 13.425 0c3.725 3.7 3.725 9.725 0.025 13.425-1.85 1.85-4.275 2.775-6.725 2.775zM13.075 5.1c-2.050 0-4.1 0.775-5.65 2.35-3.125 3.125-3.125 8.2 0 11.325 3.125 3.075 8.2 3.075 11.325-0.025 3.125-3.125 3.125-8.2 0-11.325-1.575-1.55-3.625-2.325-5.675-2.325zM27.75 24.575l-3.175-3.175c-0.425-0.425-1-0.65-1.6-0.65-0.35 0-0.675 0.075-0.975 0.225l-0.625-0.625c-0.3-0.3-0.775-0.3-1.050 0-0.3 0.3-0.3 0.775 0 1.050l0.625 0.625c-0.15 0.3-0.225 0.625-0.225 0.975 0 0.6 0.225 1.175 0.65 1.6l3.2 3.15c0.45 0.45 1.025 0.65 1.6 0.65s1.15-0.225 1.6-0.65c0.85-0.875 0.85-2.3-0.025-3.175zM26.7 26.7c-0.3 0.3-0.775 0.3-1.050 0l-3.2-3.175c-0.15-0.15-0.225-0.325-0.225-0.525s0.075-0.4 0.225-0.525c0.15-0.15 0.325-0.225 0.525-0.225s0.4 0.075 0.525 0.225l3.175 3.175c0.325 0.275 0.325 0.75 0.025 1.050z"></path>
</svg>
